<svg xmlns="http://www.w3.org/2000/svg" xmlns:xlink="http://www.w3.org/1999/xlink" width="1040" height="474.20000000000005"><rect width="1040" height="474.20000000000005" rx="0" ry="0" class="a"></rect><svg height="434.20000000000005" viewBox="0 0 100 43.42" width="1000" x="20" xmlns="http://www.w3.org/2000/svg" xmlns:xlink="http://www.w3.org/1999/xlink" y="20"><style>.a{fill:rgb(255,255,255)}.b{font-family:'Fira Code',Monaco,Consolas,Menlo,'Bitstream Vera Sans Mono','Powerline Symbols',monospace}.c{fill:transparent}.d{fill:rgb(6,152,154);white-space:pre}.e{fill:rgb(0,0,0);font-weight:bold;white-space:pre}.f{fill:rgb(0,0,0);white-space:pre}.g{fill:rgb(52,101,164);white-space:pre}.h{fill:rgb(78,154,6);white-space:pre}</style><g font-family="&#x27;Fira Code&#x27;,Monaco,Consolas,Menlo,&#x27;Bitstream Vera Sans Mono&#x27;,&#x27;Powerline Symbols&#x27;,monospace" font-size="1.67" class="b"><defs><symbol id="a"><rect height="21" width="100" x="0" y="0" class="c"></rect></symbol></defs><rect height="43.42" width="100" class="a"></rect><svg x="0" y="0" width="100"><svg x="0"><use xlink:href="#a"></use><text x="0" y="1.67" class="d">--</text><text x="3.006" y="1.67" class="e">Packing</text><text x="11.021999999999998" y="1.67" class="e">into</text><text x="16.032" y="1.67" class="e">pkglite</text><text x="24.048" y="1.67" class="e">file</text><text x="29.058" y="1.67" class="d">---------------------------------------------------</text><text x="0" y="3.8409999999999997" class="f">--</text><text x="3.006" y="3.8409999999999997" class="f">Reading</text><text x="11.021999999999998" y="3.8409999999999997" class="f">package:</text><text x="20.04" y="3.8409999999999997" class="g">esubdemo</text><text x="29.058" y="3.8409999999999997" class="f">---------------------------------------------------</text><text x="0" y="6.012" class="f">Reading</text><text x="8.016" y="6.012" class="h">&quot;.Rbuildignore&quot;</text><text x="0" y="8.183" class="f">Reading</text><text x="8.016" y="8.183" class="h">&quot;DESCRIPTION&quot;</text><text x="0" y="10.354" class="f">Reading</text><text x="8.016" y="10.354" class="h">&quot;NAMESPACE&quot;</text><text x="0" y="12.525" class="f">Reading</text><text x="8.016" y="12.525" class="h">&quot;README.md&quot;</text><text x="0" y="14.696" class="f">Reading</text><text x="8.016" y="14.696" class="h">&quot;R/count_by.R&quot;</text><text x="0" y="16.866999999999997" class="f">Reading</text><text x="8.016" y="16.866999999999997" class="h">&quot;R/fmt.R&quot;</text><text x="0" y="19.037999999999997" class="f">Reading</text><text x="8.016" y="19.037999999999997" class="h">&quot;R/utils-pipe.R&quot;</text><text x="0" y="21.209000000000003" class="f">Reading</text><text x="8.016" y="21.209000000000003" class="h">&quot;R/zzz.R&quot;</text><text x="0" y="23.380000000000003" class="f">Reading</text><text x="8.016" y="23.380000000000003" class="h">&quot;man/count_by.Rd&quot;</text><text x="0" y="25.550999999999995" class="f">Reading</text><text x="8.016" y="25.550999999999995" class="h">&quot;man/fmt_ci.Rd&quot;</text><text x="0" y="27.722" class="f">Reading</text><text x="8.016" y="27.722" class="h">&quot;man/fmt_est.Rd&quot;</text><text x="0" y="29.893" class="f">Reading</text><text x="8.016" y="29.893" class="h">&quot;man/fmt_num.Rd&quot;</text><text x="0" y="32.064" class="f">Reading</text><text x="8.016" y="32.064" class="h">&quot;man/fmt_pval.Rd&quot;</text><text x="0" y="34.235" class="f">Reading</text><text x="8.016" y="34.235" class="h">&quot;man/pipe.Rd&quot;</text><text x="0" y="36.406" class="f">Reading</text><text x="8.016" y="36.406" class="h">&quot;inst/pkgdown/assets/readme.txt&quot;</text><text x="0" y="38.577000000000005" class="f">Reading</text><text x="8.016" y="38.577000000000005" class="h">&quot;inst/pkgdown/templates/readme.txt&quot;</text><text x="0" y="40.748000000000005" class="f">Reading</text><text x="8.016" y="40.748000000000005" class="h">&quot;inst/startup.R&quot;</text><text x="0" y="42.919" class="f">Writing</text><text x="8.016" y="42.919" class="f">to:</text><text x="12.024" y="42.919" class="g">&quot;r0pkgs.txt&quot;</text></svg></svg></g></svg></svg>
